# xmcd
#
# Track frame offsets:
#	150
#	16923
#	32796
#	47169
#	65742
#	83565
#	103488
#	122586
#	139659
#	160407
#	175980
#
# Disc length: 2546 seconds
#
# Revision: 1
# Processed by: cddbd v1.5.2PL0 Copyright (c) Steve Scherf et al.
# Submitted via: audiograbber 1.83.01
#
DISCID=9509f00b
DTITLE=Kellie Pickler - Small Town Girl
DYEAR=2006
DGENRE=
TTITLE0=Red High Heels
TTITLE1=Gotta Keep Moving
TTITLE2=Things That Never Cross a Man's Mind
TTITLE3=Didn't You Know How Much I Loved You
TTITLE4=I Wonder
TTITLE5=Small Town Girl
TTITLE6=Wild Ponies
TTITLE7=Girls Like Me
TTITLE8=I'm on My Way
TTITLE9=One of the Guys
TTITLE10=My Angel
EXTD=
EXTT0=
EXTT1=
EXTT2=
EXTT3=
EXTT4=
EXTT5=
EXTT6=
EXTT7=
EXTT8=
EXTT9=
EXTT10=
PLAYORDER=
